# Blender 3.2.0
# www.blender.org
mtllib untitled1.mtl
o Cube
v 1.000000 6.000000 -1.000000
v 1.000000 0.000000 -1.000000
v 1.000000 6.000000 1.000000
v 1.000000 0.000000 1.000000
v -1.000000 6.000000 -1.000000
v -1.000000 0.000000 -1.000000
v -1.000000 6.000000 1.000000
v -1.000000 0.000000 1.000000
v 1.068761 4.942813 0.340887
v 1.000000 4.942813 0.340887
v 1.068761 4.304778 0.340887
v 1.000000 4.304778 0.340887
v 1.068761 4.942813 0.654715
v 1.000000 4.942813 0.654715
v 1.068761 4.304778 0.654715
v 1.000000 4.304778 0.654715
v -0.280419 6.000000 -0.091733
v -0.280419 6.691100 0.138634
v -0.510786 6.691100 -0.091733
v -0.280419 6.957669 0.138634
v -0.280419 7.648769 -0.091733
v -0.510786 6.957669 -0.091733
v -0.280419 6.000000 -0.438821
v -0.510786 6.691100 -0.438821
v -0.280419 6.691100 -0.669188
v -0.280419 7.648769 -0.438821
v -0.280419 6.957669 -0.669188
v -0.510786 6.957669 -0.438821
v 0.270670 6.000000 -0.091733
v 0.501037 6.691100 -0.091733
v 0.270670 6.691100 0.138634
v 0.270670 7.648769 -0.091733
v 0.270670 6.957669 0.138634
v 0.501037 6.957669 -0.091733
v 0.270670 6.000000 -0.438821
v 0.270670 6.691100 -0.669188
v 0.501037 6.691100 -0.438821
v 0.270670 7.648769 -0.438821
v 0.501037 6.957669 -0.438821
v 0.270670 6.957669 -0.669188
v 1.068761 4.942813 -0.119140
v 1.000000 4.942813 -0.119140
v 1.068761 4.304778 -0.119140
v 1.000000 4.304778 -0.119140
v 1.068761 4.942813 0.194688
v 1.000000 4.942813 0.194688
v 1.068761 4.304778 0.194688
v 1.000000 4.304778 0.194688
v 1.068761 4.942813 -0.576453
v 1.000000 4.942813 -0.576453
v 1.068761 4.304778 -0.576453
v 1.000000 4.304778 -0.576453
v 1.068761 4.942813 -0.262624
v 1.000000 4.942813 -0.262624
v 1.068761 4.304778 -0.262624
v 1.000000 4.304778 -0.262624
v 1.068761 4.058347 0.340887
v 1.000000 4.058347 0.340887
v 1.068761 3.420311 0.340887
v 1.068761 4.058347 0.654715
v 1.000000 4.058347 0.654715
v 1.068761 3.420311 0.654715
v 1.000000 3.420311 0.654715
v 1.068761 4.058347 -0.119140
v 1.000000 4.058347 -0.119140
v 1.068761 3.420311 -0.119140
v 1.068761 4.058347 0.194688
v 1.000000 4.058347 0.194688
v 1.068761 3.420311 0.194688
v 1.000000 3.420311 0.194688
v 1.068761 4.058347 -0.576453
v 1.000000 4.058347 -0.576453
v 1.068761 3.420311 -0.576453
v 1.068761 4.058347 -0.262624
v 1.000000 4.058347 -0.262624
v 1.068761 3.420311 -0.262624
v 1.000000 3.420311 -0.262624
v 1.068761 3.226429 0.340887
v 1.000000 3.226429 0.340887
v 1.068761 2.588394 0.340887
v 1.068761 3.226429 0.654715
v 1.000000 3.226429 0.654715
v 1.068761 2.588394 0.654715
v 1.000000 2.588394 0.654715
v 1.068761 3.226429 -0.119140
v 1.000000 3.226429 -0.119140
v 1.068761 2.588394 -0.119140
v 1.068761 3.226429 0.194688
v 1.000000 3.226429 0.194688
v 1.068761 2.588394 0.194688
v 1.000000 2.588394 0.194688
v 1.068761 3.226429 -0.576453
v 1.000000 3.226429 -0.576453
v 1.068761 2.588394 -0.576453
v 1.068761 3.226429 -0.262624
v 1.000000 3.226429 -0.262624
v 1.068761 2.588394 -0.262624
v 1.000000 2.588394 -0.262624
vn -0.0000 1.0000 -0.0000
vn -0.0000 -0.0000 1.0000
vn -1.0000 -0.0000 -0.0000
vn -0.0000 -1.0000 -0.0000
vn 1.0000 -0.0000 -0.0000
vn -0.0000 -0.0000 -1.0000
vn -0.6882 -0.2294 0.6882
vn -0.6882 0.2294 0.6882
vn -0.6882 -0.2294 -0.6882
vn -0.6882 0.2294 -0.6882
vn 0.6882 -0.2294 0.6882
vn 0.6882 0.2294 0.6882
vn 0.6882 -0.2294 -0.6882
vn 0.6882 0.2294 -0.6882
vn -0.9487 -0.3162 -0.0000
vn -0.7071 -0.0000 0.7071
vn -0.9487 0.3162 -0.0000
vn -0.7071 -0.0000 -0.7071
vn -0.0000 -0.3162 -0.9487
vn -0.0000 0.3162 -0.9487
vn 0.7071 -0.0000 -0.7071
vn 0.9487 -0.3162 -0.0000
vn 0.9487 0.3162 -0.0000
vn 0.7071 -0.0000 0.7071
vn -0.0000 -0.3162 0.9487
vn -0.0000 0.3162 0.9487
vt 0.625000 0.500000
vt 0.375000 0.500000
vt 0.625000 0.750000
vt 0.375000 0.750000
vt 0.875000 0.500000
vt 0.625000 0.250000
vt 0.125000 0.500000
vt 0.375000 0.250000
vt 0.875000 0.750000
vt 0.625000 1.000000
vt 0.625000 0.000000
vt 0.375000 0.000000
vt 0.375000 1.000000
vt 0.125000 0.750000
vt 0.625000 0.500000
vt 0.375000 0.500000
vt 0.625000 0.750000
vt 0.375000 0.750000
vt 0.625000 0.250000
vt 0.875000 0.500000
vt 0.125000 0.500000
vt 0.375000 0.250000
vt 0.625000 0.000000
vt 0.625000 1.000000
vt 0.875000 0.750000
vt 0.375000 0.000000
vt 0.375000 1.000000
vt 0.125000 0.750000
vt 0.181919 0.678707
vt 0.479790 0.943081
vt 0.479790 0.000000
vt 0.181919 0.750000
vt 0.479790 0.071293
vt 0.125000 0.678707
vt 0.520210 0.000000
vt 0.520210 0.943081
vt 0.625000 0.071293
vt 0.818081 0.678707
vt 0.625000 0.943081
vt 0.520210 0.071293
vt 0.181919 0.571293
vt 0.125000 0.571293
vt 0.479790 0.178707
vt 0.479790 0.306919
vt 0.181919 0.500000
vt 0.625000 0.306919
vt 0.818081 0.571293
vt 0.625000 0.178707
vt 0.520210 0.250000
vt 0.520210 0.306919
vt 0.520210 0.178707
vt 0.318081 0.678707
vt 0.375000 0.678707
vt 0.479790 0.678707
vt 0.479790 0.806919
vt 0.318081 0.750000
vt 0.681919 0.678707
vt 0.625000 0.806919
vt 0.520210 0.806919
vt 0.520210 0.750000
vt 0.520210 0.678707
vt 0.318081 0.571293
vt 0.318081 0.500000
vt 0.479790 0.443081
vt 0.375000 0.571293
vt 0.479790 0.571293
vt 0.681919 0.571293
vt 0.625000 0.443081
vt 0.520210 0.500000
vt 0.520210 0.571293
vt 0.520210 0.443081
vt 0.625000 0.500000
vt 0.375000 0.500000
vt 0.625000 0.750000
vt 0.375000 0.750000
vt 0.625000 0.250000
vt 0.875000 0.500000
vt 0.125000 0.500000
vt 0.375000 0.250000
vt 0.625000 0.000000
vt 0.625000 1.000000
vt 0.875000 0.750000
vt 0.375000 0.000000
vt 0.375000 1.000000
vt 0.125000 0.750000
vt 0.625000 0.500000
vt 0.375000 0.500000
vt 0.625000 0.750000
vt 0.375000 0.750000
vt 0.625000 0.250000
vt 0.875000 0.500000
vt 0.125000 0.500000
vt 0.375000 0.250000
vt 0.625000 0.000000
vt 0.625000 1.000000
vt 0.875000 0.750000
vt 0.375000 0.000000
vt 0.375000 1.000000
vt 0.125000 0.750000
vt 0.625000 0.500000
vt 0.375000 0.500000
vt 0.625000 0.750000
vt 0.625000 0.250000
vt 0.875000 0.500000
vt 0.375000 0.250000
vt 0.625000 0.000000
vt 0.875000 0.750000
vt 0.375000 0.000000
vt 0.625000 0.500000
vt 0.375000 0.500000
vt 0.625000 0.750000
vt 0.625000 0.250000
vt 0.875000 0.500000
vt 0.375000 0.250000
vt 0.625000 0.000000
vt 0.875000 0.750000
vt 0.375000 0.000000
vt 0.625000 0.500000
vt 0.375000 0.500000
vt 0.625000 0.750000
vt 0.625000 0.250000
vt 0.875000 0.500000
vt 0.375000 0.250000
vt 0.625000 0.000000
vt 0.875000 0.750000
vt 0.375000 0.000000
vt 0.625000 0.500000
vt 0.375000 0.500000
vt 0.625000 0.750000
vt 0.625000 0.250000
vt 0.875000 0.500000
vt 0.375000 0.250000
vt 0.625000 0.000000
vt 0.875000 0.750000
vt 0.375000 0.000000
vt 0.625000 0.500000
vt 0.375000 0.500000
vt 0.625000 0.750000
vt 0.625000 0.250000
vt 0.875000 0.500000
vt 0.375000 0.250000
vt 0.625000 0.000000
vt 0.875000 0.750000
vt 0.375000 0.000000
vt 0.625000 0.500000
vt 0.375000 0.500000
vt 0.625000 0.750000
vt 0.625000 0.250000
vt 0.875000 0.500000
vt 0.375000 0.250000
vt 0.625000 0.000000
vt 0.875000 0.750000
vt 0.375000 0.000000
s 0
usemtl Material
f 5/5/1 3/3/1 1/1/1
f 3/3/2 8/13/2 4/4/2
f 7/11/3 6/8/3 8/12/3
f 2/2/4 8/14/4 6/7/4
f 1/1/5 4/4/5 2/2/5
f 5/6/6 2/2/6 6/8/6
f 33/59/2 18/30/2 31/55/2
f 39/70/5 30/54/5 37/66/5
f 15/23/2 14/22/2 16/26/2
f 38/67/1 21/38/1 32/57/1
f 22/40/3 24/43/3 19/33/3
f 27/50/6 36/64/6 25/44/6
f 17/29/7 18/32/7 19/34/7
f 20/35/8 21/37/8 22/40/8
f 23/41/9 24/42/9 25/45/9
f 26/48/10 27/49/10 28/51/10
f 29/52/11 30/53/11 31/56/11
f 32/58/12 33/59/12 34/60/12
f 35/62/13 36/63/13 37/65/13
f 38/68/14 39/69/14 40/71/14
f 17/29/15 24/42/15 23/41/15
f 18/31/16 22/40/16 19/33/16
f 26/48/17 22/40/17 21/37/17
f 25/44/18 28/51/18 27/50/18
f 23/41/19 36/63/19 35/62/19
f 38/68/20 27/50/20 26/46/20
f 39/70/21 36/64/21 40/71/21
f 35/62/22 30/54/22 29/52/22
f 32/57/23 39/70/23 38/67/23
f 33/59/24 30/54/24 34/61/24
f 29/52/25 18/32/25 17/29/25
f 32/58/26 20/36/26 33/59/26
f 23/41/4 29/52/4 17/29/4
f 13/19/1 10/16/1 14/22/1
f 9/15/6 12/18/6 10/16/6
f 11/17/4 16/27/4 12/18/4
f 10/16/3 16/28/3 14/21/3
f 13/20/5 11/17/5 9/15/5
f 47/80/2 46/79/2 48/83/2
f 45/76/1 42/73/1 46/79/1
f 41/72/6 44/75/6 42/73/6
f 43/74/4 48/84/4 44/75/4
f 42/73/3 48/85/3 46/78/3
f 45/77/5 43/74/5 41/72/5
f 55/94/2 54/93/2 56/97/2
f 53/90/1 50/87/1 54/93/1
f 49/86/6 52/89/6 50/87/6
f 51/88/4 56/98/4 52/89/4
f 50/87/3 56/99/3 54/92/3
f 53/91/5 51/88/5 49/86/5
f 62/106/2 61/105/2 63/108/2
f 60/103/1 58/101/1 61/105/1
f 60/104/5 59/102/5 57/100/5
f 69/115/2 68/114/2 70/117/2
f 67/112/1 65/110/1 68/114/1
f 67/113/5 66/111/5 64/109/5
f 76/124/2 75/123/2 77/126/2
f 74/121/1 72/119/1 75/123/1
f 74/122/5 73/120/5 71/118/5
f 83/133/2 82/132/2 84/135/2
f 81/130/1 79/128/1 82/132/1
f 81/131/5 80/129/5 78/127/5
f 90/142/2 89/141/2 91/144/2
f 88/139/1 86/137/1 89/141/1
f 88/140/5 87/138/5 85/136/5
f 97/151/2 96/150/2 98/153/2
f 95/148/1 93/146/1 96/150/1
f 95/149/5 94/147/5 92/145/5
f 5/5/1 7/9/1 3/3/1
f 3/3/2 7/10/2 8/13/2
f 7/11/3 5/6/3 6/8/3
f 2/2/4 4/4/4 8/14/4
f 1/1/5 3/3/5 4/4/5
f 5/6/6 1/1/6 2/2/6
f 33/59/2 20/36/2 18/30/2
f 39/70/5 34/61/5 30/54/5
f 15/23/2 13/19/2 14/22/2
f 38/67/1 26/47/1 21/38/1
f 22/40/3 28/51/3 24/43/3
f 27/50/6 40/71/6 36/64/6
f 17/29/15 19/34/15 24/42/15
f 18/31/16 20/35/16 22/40/16
f 26/48/17 28/51/17 22/40/17
f 25/44/18 24/43/18 28/51/18
f 23/41/19 25/45/19 36/63/19
f 38/68/20 40/71/20 27/50/20
f 39/70/21 37/66/21 36/64/21
f 35/62/22 37/66/22 30/54/22
f 32/57/23 34/61/23 39/70/23
f 33/59/24 31/55/24 30/54/24
f 29/52/25 31/56/25 18/32/25
f 32/58/26 21/39/26 20/36/26
f 23/41/4 35/62/4 29/52/4
f 13/19/1 9/15/1 10/16/1
f 9/15/6 11/17/6 12/18/6
f 11/17/4 15/24/4 16/27/4
f 10/16/3 12/18/3 16/28/3
f 13/20/5 15/25/5 11/17/5
f 47/80/2 45/76/2 46/79/2
f 45/76/1 41/72/1 42/73/1
f 41/72/6 43/74/6 44/75/6
f 43/74/4 47/81/4 48/84/4
f 42/73/3 44/75/3 48/85/3
f 45/77/5 47/82/5 43/74/5
f 55/94/2 53/90/2 54/93/2
f 53/90/1 49/86/1 50/87/1
f 49/86/6 51/88/6 52/89/6
f 51/88/4 55/95/4 56/98/4
f 50/87/3 52/89/3 56/99/3
f 53/91/5 55/96/5 51/88/5
f 62/106/2 60/103/2 61/105/2
f 60/103/1 57/100/1 58/101/1
f 60/104/5 62/107/5 59/102/5
f 69/115/2 67/112/2 68/114/2
f 67/112/1 64/109/1 65/110/1
f 67/113/5 69/116/5 66/111/5
f 76/124/2 74/121/2 75/123/2
f 74/121/1 71/118/1 72/119/1
f 74/122/5 76/125/5 73/120/5
f 83/133/2 81/130/2 82/132/2
f 81/130/1 78/127/1 79/128/1
f 81/131/5 83/134/5 80/129/5
f 90/142/2 88/139/2 89/141/2
f 88/139/1 85/136/1 86/137/1
f 88/140/5 90/143/5 87/138/5
f 97/151/2 95/148/2 96/150/2
f 95/148/1 92/145/1 93/146/1
f 95/149/5 97/152/5 94/147/5
